<svg xmlns="http://www.w3.org/2000/svg" viewBox="0 -0.5 61 61" shape-rendering="crispEdges">
<metadata>Made with Pixels to Svg https://codepen.io/shshaw/pen/XbxvNj</metadata>
<path stroke="#000000" d="M25 0h11M21 1h4M36 1h4M18 2h3M40 2h3M16 3h2M43 3h2M15 4h1M45 4h1M13 5h2M46 5h2M12 6h1M48 6h1M11 7h1M49 7h1M10 8h1M50 8h1M9 9h1M51 9h1M8 10h1M52 10h1M7 11h1M53 11h1M6 12h1M54 12h1M5 13h1M55 13h1M5 14h1M55 14h1M4 15h1M56 15h1M3 16h1M57 16h1M3 17h1M57 17h1M2 18h1M58 18h1M2 19h1M58 19h1M2 20h1M58 20h1M1 21h1M59 21h1M1 22h1M59 22h1M1 23h1M59 23h1M1 24h1M59 24h1M0 25h1M60 25h1M0 26h1M60 26h1M0 27h1M60 27h1M0 28h1M60 28h1M0 29h1M60 29h1M0 30h1M60 30h1M0 31h1M60 31h1M0 32h1M60 32h1M0 33h1M60 33h1M0 34h1M60 34h1M0 35h1M60 35h1M1 36h1M59 36h1M1 37h1M59 37h1M1 38h1M59 38h1M1 39h1M59 39h1M2 40h1M58 40h1M2 41h1M58 41h1M2 42h1M58 42h1M3 43h1M57 43h1M3 44h1M57 44h1M4 45h1M56 45h1M5 46h1M55 46h1M5 47h1M55 47h1M6 48h1M54 48h1M7 49h1M53 49h1M8 50h1M52 50h1M9 51h1M51 51h1M10 52h1M50 52h1M11 53h1M49 53h1M12 54h1M48 54h1M13 55h2M46 55h2M15 56h1M45 56h1M16 57h2M43 57h2M18 58h3M40 58h3M21 59h4M36 59h4M25 60h11" />
<path stroke="#00b0cb" d="M25 1h11M21 2h19M19 3h6M36 3h6M17 4h4M40 4h4M15 5h4M42 5h4M13 6h4M44 6h4M12 7h1M14 7h1M46 7h1M48 7h1M11 8h1M13 8h1M47 8h1M49 8h1M10 9h3M48 9h3M9 10h2M50 10h2M8 11h2M51 11h2M7 12h1M9 12h1M51 12h1M53 12h1M6 13h1M8 13h1M52 13h1M54 13h1M6 14h2M53 14h2M5 15h2M54 15h2M5 16h2M54 16h2M4 17h2M55 17h2M4 18h2M55 18h2M3 19h2M56 19h2M3 20h2M56 20h2M2 21h2M57 21h2M2 22h2M57 22h2M2 23h2M57 23h2M2 24h2M57 24h2M1 25h2M58 25h2M1 26h2M58 26h2M1 27h2M58 27h2M1 28h2M58 28h2M1 29h2M58 29h2M1 30h2M58 30h2M1 31h2M58 31h2M1 32h2M58 32h2M1 33h2M58 33h2M1 34h2M58 34h2M1 35h2M58 35h2M2 36h2M57 36h2M2 37h2M57 37h2M2 38h2M57 38h2M2 39h2M57 39h2M3 40h2M56 40h2M3 41h2M56 41h2M4 42h2M55 42h2M4 43h2M55 43h2M5 44h2M54 44h2M5 45h2M54 45h2M6 46h2M53 46h2M6 47h1M8 47h1M52 47h1M54 47h1M7 48h1M9 48h1M51 48h1M53 48h1M8 49h2M51 49h2M9 50h2M50 50h2M10 51h3M48 51h3M11 52h1M13 52h1M47 52h1M49 52h1M12 53h1M14 53h1M46 53h1M48 53h1M13 54h4M44 54h4M15 55h4M42 55h4M17 56h4M40 56h4M19 57h6M36 57h6M21 58h19M25 59h11" />
<path stroke="#00d6d9" d="M18 3h1M42 3h1M16 4h1M21 4h1M39 4h1M44 4h1M25 5h11M22 6h17M13 7h1M15 7h1M19 7h23M45 7h1M47 7h1M12 8h1M17 8h27M48 8h1M16 9h29M11 10h1M14 10h23M43 10h4M49 10h1M10 11h1M13 11h22M44 11h4M50 11h1M8 12h1M12 12h22M45 12h4M52 12h1M7 13h1M11 13h22M46 13h4M53 13h1M10 14h22M47 14h4M7 15h1M10 15h21M48 15h3M53 15h1M4 16h1M9 16h21M48 16h4M56 16h1M8 17h22M49 17h4M3 18h1M8 18h23M49 18h4M57 18h1M7 19h25M49 19h5M7 20h26M48 20h6M4 21h1M7 21h27M47 21h7M56 21h1M6 22h29M46 22h9M6 23h29M41 23h14M6 24h30M39 24h16M5 25h32M38 25h18M5 26h51M5 27h51M5 28h51M5 29h51M5 30h6M12 30h44M5 31h5M13 31h43M5 32h4M14 32h42M5 33h3M15 33h41M5 34h3M15 34h41M5 35h4M16 35h40M6 36h3M16 36h39M6 37h3M16 37h39M6 38h4M17 38h38M4 39h1M7 39h3M17 39h37M56 39h1M7 40h4M18 40h36M7 41h5M20 41h34M3 42h1M8 42h5M23 42h30M57 42h1M8 43h6M25 43h28M4 44h1M9 44h6M26 44h26M56 44h1M7 45h1M10 45h6M27 45h24M53 45h1M10 46h7M28 46h23M7 47h1M11 47h7M27 47h23M53 47h1M8 48h1M12 48h8M26 48h23M52 48h1M10 49h1M13 49h10M25 49h23M50 49h1M11 50h1M14 50h33M49 50h1M16 51h29M12 52h1M17 52h27M48 52h1M13 53h1M15 53h1M19 53h23M45 53h1M47 53h1M22 54h17M25 55h11M16 56h1M21 56h1M39 56h1M44 56h1M18 57h1M42 57h1" />
<path stroke="#00bdd6" d="M25 3h11M22 4h3M36 4h3M19 5h3M39 5h3M17 6h2M42 6h2M16 7h1M44 7h1M14 8h2M45 8h2M13 9h1M47 9h1M12 10h1M48 10h1M11 11h1M49 11h1M10 12h1M50 12h1M9 13h1M51 13h1M8 14h1M52 14h1M8 15h1M52 15h1M7 16h1M53 16h1M6 17h1M54 17h1M6 18h1M54 18h1M5 19h1M55 19h1M5 20h1M55 20h1M5 21h1M55 21h1M4 22h1M56 22h1M4 23h1M56 23h1M4 24h1M56 24h1M3 25h1M57 25h1M3 26h1M57 26h1M3 27h1M57 27h1M3 28h1M57 28h1M3 29h1M57 29h1M3 30h1M57 30h1M3 31h1M57 31h1M3 32h1M57 32h1M3 33h1M57 33h1M3 34h1M57 34h1M3 35h1M57 35h1M4 36h1M56 36h1M4 37h1M56 37h1M4 38h1M56 38h1M5 39h1M55 39h1M5 40h1M55 40h1M5 41h1M55 41h1M6 42h1M54 42h1M6 43h1M54 43h1M7 44h1M53 44h1M8 45h1M52 45h1M8 46h1M52 46h1M9 47h1M51 47h1M10 48h1M50 48h1M11 49h1M49 49h1M12 50h1M48 50h1M13 51h1M47 51h1M14 52h2M45 52h2M16 53h1M44 53h1M17 54h2M42 54h2M19 55h3M39 55h3M22 56h3M36 56h3M25 57h11" />
<path stroke="#00c9d8" d="M25 4h11M22 5h3M36 5h3M19 6h3M39 6h3M17 7h2M42 7h2M16 8h1M44 8h1M14 9h2M45 9h2M13 10h1M47 10h1M12 11h1M48 11h1M11 12h1M49 12h1M10 13h1M50 13h1M9 14h1M51 14h1M9 15h1M51 15h1M8 16h1M52 16h1M7 17h1M53 17h1M7 18h1M53 18h1M6 19h1M54 19h1M6 20h1M54 20h1M6 21h1M54 21h1M5 22h1M55 22h1M5 23h1M55 23h1M5 24h1M55 24h1M4 25h1M56 25h1M4 26h1M56 26h1M4 27h1M56 27h1M4 28h1M56 28h1M4 29h1M56 29h1M4 30h1M56 30h1M4 31h1M56 31h1M4 32h1M56 32h1M4 33h1M56 33h1M4 34h1M56 34h1M4 35h1M56 35h1M5 36h1M55 36h1M5 37h1M55 37h1M5 38h1M55 38h1M6 39h1M54 39h1M6 40h1M54 40h1M6 41h1M54 41h1M7 42h1M53 42h1M7 43h1M53 43h1M8 44h1M52 44h1M9 45h1M51 45h1M9 46h1M51 46h1M10 47h1M50 47h1M11 48h1M49 48h1M12 49h1M48 49h1M13 50h1M47 50h1M14 51h2M45 51h2M16 52h1M44 52h1M17 53h2M42 53h2M19 54h3M39 54h3M22 55h3M36 55h3M25 56h11" />
<path stroke="#9af5db" d="M37 10h6M35 11h2M43 11h1M34 12h1M44 12h1M33 13h1M45 13h1M32 14h1M46 14h1M31 15h1M47 15h1M30 16h1M47 16h1M30 17h1M48 17h1M31 18h1M48 18h1M32 19h1M48 19h1M33 20h1M47 20h1M34 21h1M46 21h1M35 22h1M41 22h5M35 23h1M39 23h2M36 24h1M38 24h1M37 25h1M11 31h1M10 32h1M12 32h1M9 33h1M13 33h1M9 34h1M13 34h1M10 35h1M14 35h1M10 36h1M14 36h1M10 37h1M14 37h1M11 38h1M15 38h1M11 39h1M15 39h1M12 40h1M16 40h1M13 41h1M17 41h1M14 42h1M18 42h2M15 43h1M20 43h3M16 44h1M23 44h2M17 45h1M25 45h1M18 46h2M26 46h1M20 47h3M25 47h1M23 48h2" />
<path stroke="#c7ffdc" d="M37 11h6M35 12h2M43 12h1M34 13h1M44 13h1M33 14h1M45 14h1M32 15h1M46 15h1M31 16h1M46 16h1M31 17h1M47 17h1M32 18h1M47 18h1M33 19h1M47 19h1M34 20h1M46 20h1M35 21h1M41 21h5M36 22h1M39 22h2M36 23h1M38 23h1M37 24h1M11 32h1M10 33h1M12 33h1M10 34h1M12 34h1M11 35h1M13 35h1M11 36h1M13 36h1M11 37h1M13 37h1M12 38h1M14 38h1M12 39h1M14 39h1M13 40h1M15 40h1M14 41h1M16 41h1M15 42h1M17 42h1M16 43h1M18 43h2M17 44h1M20 44h3M18 45h2M23 45h2M20 46h3M25 46h1M23 47h2" />
<path stroke="#e3ffdd" d="M37 12h6M35 13h9M34 14h11M33 15h13M32 16h14M32 17h15M33 18h14M34 19h13M35 20h11M36 21h5M37 22h2M37 23h1M11 33h1M11 34h1M12 35h1M12 36h1M12 37h1M13 38h1M13 39h1M14 40h1M15 41h1M16 42h1M17 43h1M18 44h2M20 45h3M23 46h2" />
<path stroke="#62e6da" d="M11 30h1M10 31h1M12 31h1M9 32h1M13 32h1M8 33h1M14 33h1M8 34h1M14 34h1M9 35h1M15 35h1M9 36h1M15 36h1M9 37h1M15 37h1M10 38h1M16 38h1M10 39h1M16 39h1M11 40h1M17 40h1M12 41h1M18 41h2M13 42h1M20 42h3M14 43h1M23 43h2M15 44h1M25 44h1M16 45h1M26 45h1M17 46h1M27 46h1M18 47h2M26 47h1M20 48h3M25 48h1M23 49h2" />
</svg>