<svg xmlns="http://www.w3.org/2000/svg" viewBox="0 -0.5 84 81" shape-rendering="crispEdges">
<metadata>Made with Pixels to Svg https://codepen.io/shshaw/pen/XbxvNj</metadata>
<path stroke="#000000" d="M17 0h3M16 1h1M20 1h1M15 2h1M21 2h1M15 3h1M21 3h1M15 4h1M21 4h1M68 4h3M16 5h1M21 5h1M28 5h3M67 5h1M71 5h1M17 6h2M22 6h1M27 6h1M31 6h1M66 6h1M72 6h1M19 7h2M22 7h1M27 7h1M31 7h1M66 7h1M72 7h1M21 8h2M27 8h1M31 8h1M66 8h1M72 8h1M28 9h1M31 9h1M66 9h1M71 9h1M28 10h1M30 10h1M65 10h1M69 10h2M29 11h2M65 11h1M67 11h2M29 12h1M65 12h2M61 16h1M29 17h1M60 17h1M27 18h1M30 18h1M59 18h2M28 19h1M30 19h1M58 19h2M28 20h1M31 20h1M57 20h1M59 20h1M29 21h1M32 21h1M56 21h1M59 21h1M29 22h1M33 22h1M55 22h1M58 22h1M30 23h1M34 23h1M54 23h1M58 23h1M30 24h1M35 24h1M53 24h1M57 24h1M31 25h1M36 25h1M51 25h2M56 25h1M31 26h1M37 26h3M48 26h3M56 26h1M32 27h1M40 27h8M56 27h1M32 28h1M56 28h1M33 29h1M56 29h1M33 30h1M56 30h1M33 31h1M56 31h1M33 32h1M56 32h1M33 33h1M56 33h1M33 34h1M56 34h1M33 35h1M56 35h1M32 36h1M56 36h1M32 37h1M57 37h1M32 38h1M57 38h1M32 39h1M58 39h1M31 40h1M59 40h1M30 41h1M60 41h1M29 42h1M61 42h1M27 43h2M62 43h1M26 44h1M62 44h1M24 45h2M63 45h1M22 46h2M64 46h2M20 47h2M66 47h1M17 48h3M67 48h1M12 49h5M68 49h2M14 50h14M58 50h6M70 50h1M28 51h3M56 51h2M64 51h2M6 52h2M31 52h2M55 52h1M66 52h3M4 53h2M7 53h1M33 53h2M53 53h2M69 53h1M2 54h2M7 54h1M35 54h1M52 54h1M1 55h1M6 55h1M36 55h1M51 55h1M76 55h2M0 56h1M6 56h1M37 56h1M50 56h1M76 56h1M78 56h2M0 57h1M6 57h1M38 57h1M50 57h1M76 57h1M80 57h2M0 58h1M6 58h1M39 58h1M49 58h1M77 58h1M82 58h1M1 59h1M5 59h1M40 59h1M48 59h1M77 59h1M83 59h1M2 60h3M40 60h1M48 60h1M77 60h1M83 60h1M41 61h1M47 61h1M77 61h1M83 61h1M42 62h1M47 62h1M78 62h1M82 62h1M43 63h1M47 63h1M79 63h3M43 64h1M47 64h1M44 65h1M47 65h1M44 66h1M47 66h1M44 67h1M46 67h1M45 68h2M46 69h1M46 70h1M47 73h1M47 74h2M46 75h1M48 75h1M46 76h1M49 76h1M45 77h1M49 77h1M45 78h1M49 78h1M45 79h1M49 79h1M46 80h3" />
<path stroke="#42a5f5" d="M17 1h3M16 2h2M19 2h2M16 3h1M20 3h1M16 4h2M20 4h1M17 5h2M20 5h1M68 5h3M19 6h3M28 6h1M67 6h2M70 6h2M21 7h1M28 7h1M67 7h1M71 7h1M28 8h1M30 8h1M67 8h1M70 8h2M29 9h2M67 9h1M69 9h2M29 10h1M66 10h3M66 11h1M48 33h2M40 34h8M49 34h1M40 35h1M49 35h1M39 36h1M49 36h1M39 37h1M50 37h1M39 38h1M50 38h1M39 39h1M51 39h1M38 40h1M52 40h1M37 41h1M53 41h1M36 42h1M54 42h1M35 43h1M55 43h1M34 44h1M55 44h1M33 45h1M55 45h1M33 46h2M53 46h2M35 47h1M52 47h1M36 48h1M51 48h1M37 49h1M50 49h1M38 50h1M49 50h1M39 51h1M48 51h1M40 52h1M47 52h1M6 53h1M41 53h1M46 53h1M4 54h3M42 54h1M45 54h1M2 55h2M5 55h1M43 55h2M1 56h2M5 56h1M77 56h1M1 57h1M5 57h1M77 57h3M1 58h2M4 58h2M78 58h1M80 58h2M2 59h3M78 59h1M81 59h2M78 60h1M82 60h1M78 61h2M81 61h2M79 62h3M47 75h1M47 76h2M46 77h1M48 77h1M46 78h1M46 79h1" />
<path stroke="#64b5f6" d="M18 2h1M17 3h2M18 4h2M19 5h1M69 6h1M69 7h2M68 8h2M68 9h1M39 32h1M48 32h3M39 33h9M50 33h1M39 34h1M50 34h1M39 35h1M50 35h1M38 36h1M50 36h1M38 37h1M51 37h1M38 38h1M51 38h1M38 39h1M52 39h1M37 40h1M53 40h1M36 41h1M54 41h1M35 42h1M55 42h1M34 43h1M56 43h1M33 44h1M56 44h1M32 45h1M56 45h2M31 46h2M55 46h1M33 47h2M53 47h2M35 48h1M52 48h1M36 49h1M51 49h1M37 50h1M50 50h1M38 51h1M49 51h1M39 52h1M48 52h1M40 53h1M47 53h1M41 54h1M46 54h1M4 55h1M42 55h1M45 55h1M3 56h2M43 56h2M2 57h2M44 57h1M3 58h1M79 58h1M79 59h2M80 60h2M80 61h1" />
<path stroke="#e3f2fd" d="M19 3h1M30 6h1M68 7h1M34 26h1M35 27h1M53 27h1M35 28h2M51 28h3M36 29h4M48 29h3M53 29h1M36 30h1M40 30h8M53 30h1M36 31h1M53 31h1M36 32h1M53 32h1M36 33h1M53 33h1M36 34h1M53 34h1M36 35h1M53 35h1M35 36h1M53 36h1M35 37h1M54 37h1M35 38h1M54 38h1M35 39h1M55 39h1M34 40h1M56 40h1M33 41h1M57 41h1M32 42h1M58 42h1M31 43h1M59 43h1M30 44h1M59 44h1M29 45h1M60 45h1M27 46h2M61 46h1M26 47h2M58 47h5M28 48h3M56 48h2M31 49h2M55 49h1M33 50h2M53 50h2M35 51h1M52 51h1M36 52h1M51 52h1M37 53h1M50 53h1M38 54h1M49 54h1M39 55h1M48 55h1M40 56h1M47 56h1M4 57h1M41 57h1M47 57h1M42 58h1M46 58h1M43 59h1M45 59h1M43 60h1M45 60h1M79 60h1M44 61h1M48 79h1" />
<path stroke="#90caf9" d="M29 6h1M29 7h2M29 8h1M51 30h1M38 31h2M48 31h4M38 32h1M40 32h8M51 32h1M38 33h1M51 33h1M38 34h1M51 34h1M38 35h1M51 35h1M37 36h1M51 36h1M37 37h1M52 37h1M37 38h1M52 38h1M37 39h1M53 39h1M36 40h1M54 40h1M35 41h1M55 41h1M34 42h1M56 42h1M33 43h1M57 43h1M32 44h1M57 44h1M31 45h1M58 45h1M30 46h1M56 46h2M31 47h2M55 47h1M33 48h2M53 48h2M35 49h1M52 49h1M36 50h1M51 50h1M37 51h1M50 51h1M38 52h1M49 52h1M39 53h1M48 53h1M40 54h1M47 54h1M41 55h1M46 55h1M42 56h1M45 56h1M43 57h1M45 57h1M44 58h1M47 77h1M47 78h2M47 79h1" />
<path stroke="#ffffff" d="M28 17h1M28 18h1M29 19h1M29 20h2M58 20h1M30 21h2M57 21h2M30 22h3M56 22h2M31 23h3M55 23h3M31 24h4M54 24h3M32 25h4M53 25h3M32 26h2M35 26h2M51 26h5M33 27h2M36 27h4M48 27h5M54 27h2M33 28h2M37 28h14M54 28h2M34 29h2M40 29h8M54 29h2M34 30h2M54 30h2M34 31h2M54 31h2M34 32h2M54 32h2M34 33h2M54 33h2M34 34h2M54 34h2M34 35h2M54 35h2M33 36h2M54 36h2M33 37h2M55 37h2M33 38h2M55 38h2M33 39h2M56 39h2M32 40h2M57 40h2M31 41h2M58 41h2M30 42h2M59 42h2M29 43h2M60 43h2M27 44h3M60 44h2M26 45h3M61 45h2M24 46h3M62 46h2M22 47h4M63 47h3M20 48h8M58 48h9M17 49h14M56 49h12M28 50h5M55 50h3M64 50h6M31 51h4M53 51h3M66 51h4M33 52h3M52 52h3M69 52h1M35 53h2M51 53h2M36 54h2M50 54h2M37 55h2M49 55h2M38 56h2M48 56h2M39 57h2M48 57h2M40 58h2M47 58h2M41 59h2M46 59h2M41 60h2M46 60h2M42 61h2M45 61h2M43 62h4M44 63h3M44 64h3M45 65h2M45 66h2M45 67h1" />
<path stroke="#bbdefb" d="M51 29h2M37 30h3M48 30h3M52 30h1M37 31h1M40 31h8M52 31h1M37 32h1M52 32h1M37 33h1M52 33h1M37 34h1M52 34h1M37 35h1M52 35h1M36 36h1M52 36h1M36 37h1M53 37h1M36 38h1M53 38h1M36 39h1M54 39h1M35 40h1M55 40h1M34 41h1M56 41h1M33 42h1M57 42h1M32 43h1M58 43h1M31 44h1M58 44h1M30 45h1M59 45h1M29 46h1M58 46h3M28 47h3M56 47h2M31 48h2M55 48h1M33 49h2M53 49h2M35 50h1M52 50h1M36 51h1M51 51h1M37 52h1M50 52h1M38 53h1M49 53h1M39 54h1M48 54h1M40 55h1M47 55h1M41 56h1M46 56h1M42 57h1M46 57h1M43 58h1M45 58h1M44 59h1M44 60h1" />
</svg>