<svg xmlns="http://www.w3.org/2000/svg" viewBox="0 -0.5 290 34" shape-rendering="crispEdges">
<metadata>Made with Pixels to Svg https://codepen.io/shshaw/pen/XbxvNj</metadata>
<path stroke="#3f51b5" d="M15 0h7M33 0h10M60 0h10M87 0h10M108 0h18M163 0h10M184 0h18M211 0h22M238 0h22M265 0h7M280 0h7M15 1h7M31 1h14M58 1h14M85 1h14M108 1h20M161 1h14M184 1h19M211 1h22M238 1h22M265 1h7M280 1h7M15 2h7M30 2h16M57 2h16M84 2h16M108 2h21M160 2h16M184 2h20M211 2h22M238 2h22M265 2h8M280 2h7M15 3h7M29 3h18M56 3h18M83 3h18M108 3h21M159 3h18M184 3h21M211 3h22M238 3h22M265 3h8M280 3h7M15 4h7M28 4h20M55 4h20M82 4h20M108 4h22M158 4h20M184 4h21M211 4h22M238 4h22M265 4h9M280 4h7M15 5h7M28 5h20M55 5h20M82 5h20M108 5h22M158 5h20M184 5h22M211 5h22M238 5h22M265 5h9M280 5h7M15 6h7M27 6h22M54 6h22M81 6h22M108 6h22M157 6h22M184 6h22M211 6h22M238 6h22M265 6h10M280 6h7M15 7h7M27 7h9M40 7h9M54 7h9M67 7h9M81 7h9M94 7h9M108 7h7M122 7h8M157 7h9M170 7h9M184 7h7M198 7h8M211 7h7M238 7h7M265 7h10M280 7h7M15 8h7M27 8h8M41 8h8M54 8h8M68 8h8M81 8h8M95 8h8M108 8h7M123 8h7M157 8h8M171 8h8M184 8h7M198 8h8M211 8h7M238 8h7M265 8h11M280 8h7M15 9h7M27 9h7M42 9h7M54 9h7M69 9h7M81 9h7M96 9h7M108 9h7M123 9h7M157 9h7M172 9h7M184 9h7M199 9h7M211 9h7M238 9h7M265 9h12M280 9h7M15 10h7M27 10h7M42 10h7M54 10h7M69 10h7M81 10h7M96 10h7M108 10h7M123 10h7M157 10h7M172 10h7M184 10h7M199 10h7M211 10h7M238 10h7M265 10h12M280 10h7M15 11h7M27 11h7M42 11h7M54 11h7M69 11h7M81 11h7M96 11h7M108 11h7M121 11h9M142 11h5M157 11h7M184 11h7M199 11h7M211 11h7M238 11h7M265 11h13M280 11h7M15 12h7M27 12h7M42 12h7M54 12h7M69 12h7M81 12h7M96 12h7M108 12h22M141 12h7M157 12h7M184 12h7M199 12h7M211 12h19M238 12h19M265 12h14M280 12h7M15 13h7M27 13h7M42 13h7M54 13h7M81 13h7M96 13h7M108 13h22M140 13h9M157 13h7M184 13h7M198 13h8M211 13h19M238 13h19M265 13h14M280 13h7M15 14h7M27 14h7M42 14h7M54 14h7M81 14h7M96 14h7M108 14h21M139 14h11M157 14h7M184 14h22M211 14h19M238 14h19M265 14h22M15 15h7M27 15h22M54 15h7M81 15h7M96 15h7M108 15h21M139 15h11M157 15h7M184 15h21M211 15h19M238 15h19M265 15h22M15 16h7M27 16h22M54 16h7M81 16h7M96 16h7M108 16h21M139 16h11M157 16h7M170 16h9M184 16h21M211 16h19M238 16h19M265 16h22M15 17h7M27 17h22M54 17h7M81 17h7M96 17h7M108 17h22M139 17h11M157 17h7M171 17h8M184 17h21M211 17h19M238 17h19M265 17h7M273 17h14M15 18h7M27 18h22M54 18h7M69 18h7M81 18h7M96 18h7M108 18h22M139 18h11M157 18h7M172 18h7M184 18h20M211 18h19M238 18h19M265 18h7M273 18h14M0 19h7M15 19h7M27 19h22M54 19h7M69 19h7M81 19h7M96 19h7M108 19h7M121 19h9M140 19h9M157 19h7M172 19h7M184 19h21M211 19h7M238 19h7M265 19h7M274 19h13M0 20h7M15 20h7M27 20h22M54 20h7M69 20h7M81 20h7M96 20h7M108 20h7M123 20h7M141 20h7M157 20h7M172 20h7M184 20h22M211 20h7M238 20h7M265 20h7M275 20h12M0 21h7M15 21h7M27 21h7M42 21h7M54 21h7M69 21h7M81 21h7M96 21h7M108 21h7M123 21h7M142 21h5M157 21h7M172 21h7M184 21h22M211 21h7M238 21h7M265 21h7M275 21h12M0 22h8M14 22h8M27 22h7M42 22h7M54 22h8M68 22h8M81 22h8M95 22h8M108 22h7M123 22h7M157 22h8M171 22h8M184 22h8M196 22h10M211 22h7M238 22h7M265 22h7M276 22h11M0 23h9M13 23h9M27 23h7M42 23h7M54 23h9M67 23h9M81 23h9M94 23h9M108 23h7M122 23h8M157 23h9M170 23h9M184 23h7M197 23h9M211 23h7M238 23h7M265 23h7M277 23h10M0 24h22M27 24h7M42 24h7M54 24h22M81 24h22M108 24h22M157 24h22M184 24h7M198 24h8M211 24h22M238 24h22M265 24h7M277 24h10M1 25h20M27 25h7M42 25h7M55 25h20M82 25h20M108 25h22M158 25h20M184 25h7M199 25h7M211 25h22M238 25h22M265 25h7M278 25h9M1 26h20M27 26h7M42 26h7M55 26h20M82 26h20M108 26h22M158 26h20M184 26h7M199 26h7M211 26h22M238 26h22M265 26h7M278 26h9M2 27h18M27 27h7M42 27h7M56 27h18M83 27h18M108 27h21M159 27h18M184 27h7M199 27h7M211 27h22M238 27h22M265 27h7M279 27h8M3 28h16M27 28h7M42 28h7M57 28h16M84 28h16M108 28h21M160 28h16M184 28h7M199 28h7M211 28h22M238 28h22M265 28h7M279 28h8M4 29h14M27 29h7M42 29h7M58 29h14M85 29h14M108 29h20M161 29h14M184 29h7M199 29h7M211 29h22M238 29h22M265 29h7M280 29h7M6 30h10M27 30h7M42 30h7M60 30h10M87 30h10M108 30h18M163 30h10M184 30h7M199 30h7M211 30h22M238 30h22M265 30h7M280 30h7" />
<path stroke="#f44336" d="M22 1h1M233 1h1M260 1h1M272 1h1M287 1h1M22 2h2M233 2h2M260 2h2M273 2h1M287 2h2M22 3h3M129 3h1M233 3h3M260 3h3M273 3h2M287 3h3M22 4h3M130 4h1M205 4h1M233 4h3M260 4h3M274 4h1M287 4h3M22 5h3M48 5h1M75 5h1M102 5h1M130 5h2M178 5h1M206 5h1M233 5h3M260 5h3M274 5h2M287 5h3M22 6h3M49 6h1M76 6h1M103 6h1M130 6h2M179 6h1M206 6h2M233 6h3M260 6h3M275 6h1M287 6h3M22 7h3M36 7h4M49 7h2M63 7h4M76 7h2M90 7h4M103 7h2M115 7h7M130 7h3M166 7h4M179 7h2M191 7h7M206 7h2M218 7h18M245 7h18M275 7h2M287 7h3M22 8h3M35 8h6M49 8h2M62 8h6M76 8h2M89 8h6M103 8h2M115 8h8M130 8h3M165 8h6M179 8h2M191 8h7M206 8h3M218 8h18M245 8h18M276 8h1M287 8h3M22 9h3M34 9h8M49 9h3M61 9h8M76 9h3M88 9h8M103 9h3M115 9h8M130 9h3M164 9h8M179 9h3M191 9h8M206 9h3M218 9h18M245 9h18M277 9h1M287 9h3M22 10h3M34 10h5M49 10h3M61 10h5M76 10h3M88 10h5M103 10h3M115 10h3M130 10h3M164 10h5M179 10h3M191 10h3M206 10h3M218 10h3M245 10h3M277 10h1M287 10h3M22 11h3M34 11h4M49 11h3M61 11h4M76 11h3M88 11h4M103 11h3M115 11h3M130 11h3M164 11h4M173 11h9M191 11h3M206 11h3M218 11h3M245 11h3M278 11h1M287 11h3M22 12h3M34 12h3M49 12h3M61 12h3M76 12h3M88 12h3M103 12h3M130 12h3M164 12h3M174 12h8M191 12h3M206 12h3M279 12h1M287 12h3M22 13h3M34 13h3M49 13h3M61 13h3M70 13h9M88 13h3M103 13h3M130 13h3M164 13h3M175 13h7M191 13h3M206 13h3M230 13h1M257 13h1M279 13h1M287 13h3M22 14h3M34 14h3M49 14h3M61 14h3M71 14h8M88 14h3M103 14h3M129 14h4M164 14h3M206 14h3M230 14h2M257 14h2M287 14h3M22 15h3M49 15h3M61 15h3M72 15h7M88 15h3M103 15h3M129 15h4M150 15h1M164 15h3M205 15h4M230 15h3M257 15h3M287 15h3M22 16h3M49 16h3M61 16h3M88 16h3M103 16h3M129 16h4M150 16h1M164 16h3M205 16h4M230 16h3M257 16h3M287 16h3M22 17h3M49 17h3M61 17h3M88 17h3M103 17h3M130 17h2M150 17h1M164 17h3M179 17h1M205 17h4M230 17h3M257 17h3M272 17h1M287 17h3M22 18h3M49 18h3M61 18h3M88 18h3M103 18h3M130 18h2M150 18h1M164 18h3M179 18h2M204 18h4M230 18h3M257 18h3M272 18h1M287 18h3M22 19h3M49 19h3M61 19h3M76 19h1M88 19h3M103 19h3M115 19h6M130 19h2M149 19h2M164 19h3M179 19h3M205 19h3M218 19h15M245 19h15M272 19h2M287 19h3M7 20h1M22 20h3M49 20h3M61 20h3M76 20h2M88 20h3M103 20h3M115 20h8M130 20h3M148 20h2M164 20h3M179 20h3M206 20h2M218 20h15M245 20h15M272 20h3M287 20h3M7 21h2M22 21h3M34 21h8M49 21h3M61 21h3M76 21h3M88 21h3M103 21h3M115 21h8M130 21h3M147 21h2M164 21h3M179 21h3M206 21h1M218 21h15M245 21h15M272 21h3M287 21h3M8 22h2M22 22h3M34 22h8M49 22h3M62 22h2M76 22h3M89 22h2M103 22h3M115 22h3M130 22h3M143 22h5M165 22h2M179 22h3M192 22h4M206 22h2M218 22h3M245 22h3M272 22h3M287 22h3M9 23h1M22 23h3M34 23h8M49 23h3M63 23h1M76 23h3M90 23h1M103 23h3M115 23h3M130 23h3M166 23h1M179 23h3M191 23h6M206 23h3M218 23h3M245 23h3M272 23h3M287 23h3M22 24h3M34 24h3M49 24h3M76 24h3M103 24h3M130 24h3M179 24h3M191 24h7M206 24h3M272 24h3M287 24h3M21 25h4M34 25h3M49 25h3M75 25h4M102 25h4M130 25h3M178 25h4M191 25h4M206 25h3M233 25h1M260 25h1M272 25h3M287 25h3M21 26h4M34 26h3M49 26h3M75 26h4M102 26h4M130 26h3M178 26h4M191 26h3M206 26h3M233 26h2M260 26h2M272 26h3M287 26h3M20 27h5M34 27h3M49 27h3M74 27h5M101 27h5M129 27h4M177 27h5M191 27h3M206 27h3M233 27h3M260 27h3M272 27h3M287 27h3M19 28h5M34 28h3M49 28h3M73 28h5M100 28h5M129 28h4M176 28h5M191 28h3M206 28h3M233 28h3M260 28h3M272 28h3M287 28h3M18 29h6M34 29h3M49 29h3M72 29h6M99 29h6M128 29h5M175 29h6M191 29h3M206 29h3M233 29h3M260 29h3M272 29h3M287 29h3M5 30h1M16 30h7M34 30h3M49 30h3M59 30h1M70 30h7M86 30h1M97 30h7M126 30h6M162 30h1M173 30h7M191 30h3M206 30h3M233 30h3M260 30h3M272 30h3M287 30h3M6 31h16M28 31h9M43 31h9M60 31h16M87 31h16M109 31h23M163 31h16M185 31h9M200 31h9M212 31h24M239 31h24M266 31h9M281 31h9M7 32h14M29 32h8M44 32h8M61 32h14M88 32h14M110 32h21M164 32h14M186 32h8M201 32h8M213 32h23M240 32h23M267 32h8M282 32h8M9 33h10M30 33h7M45 33h7M63 33h10M90 33h10M111 33h18M166 33h10M187 33h7M202 33h7M214 33h22M241 33h22M268 33h7M283 33h7" />
</svg>