<svg xmlns="http://www.w3.org/2000/svg" viewBox="0 -0.5 133 71" shape-rendering="crispEdges">
<metadata>Made with Pixels to Svg https://codepen.io/shshaw/pen/XbxvNj</metadata>
<path stroke="#0392cf" d="M15 0h7M33 0h10M60 0h10M87 0h10M108 0h18M15 1h7M31 1h14M58 1h14M85 1h14M108 1h20M15 2h7M30 2h16M57 2h16M84 2h16M108 2h21M15 3h7M29 3h18M56 3h18M83 3h18M108 3h21M15 4h7M28 4h20M55 4h20M82 4h20M108 4h22M15 5h7M28 5h20M55 5h20M82 5h20M108 5h22M15 6h7M27 6h22M54 6h22M81 6h22M108 6h22M15 7h7M27 7h9M40 7h9M54 7h9M67 7h9M81 7h9M94 7h9M108 7h7M122 7h8M15 8h7M27 8h8M41 8h8M54 8h8M68 8h8M81 8h8M95 8h8M108 8h7M123 8h7M15 9h7M27 9h7M42 9h7M54 9h7M69 9h7M81 9h7M96 9h7M108 9h7M123 9h7M15 10h7M27 10h7M42 10h7M54 10h7M69 10h7M81 10h7M96 10h7M108 10h7M123 10h7M15 11h7M27 11h7M42 11h7M54 11h7M69 11h7M81 11h7M96 11h7M108 11h7M121 11h9M15 12h7M27 12h7M42 12h7M54 12h7M69 12h7M81 12h7M96 12h7M108 12h22M15 13h7M27 13h7M42 13h7M54 13h7M81 13h7M96 13h7M108 13h22M15 14h7M27 14h7M42 14h7M54 14h7M81 14h7M96 14h7M108 14h21M15 15h7M27 15h22M54 15h7M81 15h7M96 15h7M108 15h21M15 16h7M27 16h22M54 16h7M81 16h7M96 16h7M108 16h21M15 17h7M27 17h22M54 17h7M81 17h7M96 17h7M108 17h22M15 18h7M27 18h22M54 18h7M69 18h7M81 18h7M96 18h7M108 18h22M0 19h7M15 19h7M27 19h22M54 19h7M69 19h7M81 19h7M96 19h7M108 19h7M121 19h9M0 20h7M15 20h7M27 20h22M54 20h7M69 20h7M81 20h7M96 20h7M108 20h7M123 20h7M0 21h7M15 21h7M27 21h7M42 21h7M54 21h7M69 21h7M81 21h7M96 21h7M108 21h7M123 21h7M0 22h8M14 22h8M27 22h7M42 22h7M54 22h8M68 22h8M81 22h8M95 22h8M108 22h7M123 22h7M0 23h9M13 23h9M27 23h7M42 23h7M54 23h9M67 23h9M81 23h9M94 23h9M108 23h7M122 23h8M0 24h22M27 24h7M42 24h7M54 24h22M81 24h22M108 24h22M1 25h20M27 25h7M42 25h7M55 25h20M82 25h20M108 25h22M1 26h20M27 26h7M42 26h7M55 26h20M82 26h20M108 26h22M2 27h18M27 27h7M42 27h7M56 27h18M83 27h18M108 27h21M3 28h16M27 28h7M42 28h7M57 28h16M84 28h16M108 28h21M4 29h14M27 29h7M42 29h7M58 29h14M85 29h14M108 29h20M6 30h10M27 30h7M42 30h7M60 30h10M87 30h10M108 30h18M6 37h10M27 37h18M54 37h22M81 37h22M108 37h7M123 37h7M4 38h14M27 38h19M54 38h22M81 38h22M108 38h7M123 38h7M3 39h16M27 39h20M54 39h22M81 39h22M108 39h8M123 39h7M2 40h18M27 40h21M54 40h22M81 40h22M108 40h8M123 40h7M1 41h20M27 41h21M54 41h22M81 41h22M108 41h9M123 41h7M1 42h20M27 42h22M54 42h22M81 42h22M108 42h9M123 42h7M0 43h22M27 43h22M54 43h22M81 43h22M108 43h10M123 43h7M0 44h9M13 44h9M27 44h7M41 44h8M54 44h7M81 44h7M108 44h10M123 44h7M0 45h8M14 45h8M27 45h7M41 45h8M54 45h7M81 45h7M108 45h11M123 45h7M0 46h7M15 46h7M27 46h7M42 46h7M54 46h7M81 46h7M108 46h12M123 46h7M0 47h7M15 47h7M27 47h7M42 47h7M54 47h7M81 47h7M108 47h12M123 47h7M0 48h7M27 48h7M42 48h7M54 48h7M81 48h7M108 48h13M123 48h7M0 49h7M27 49h7M42 49h7M54 49h19M81 49h19M108 49h14M123 49h7M0 50h7M27 50h7M41 50h8M54 50h19M81 50h19M108 50h14M123 50h7M0 51h7M27 51h22M54 51h19M81 51h19M108 51h22M0 52h7M27 52h21M54 52h19M81 52h19M108 52h22M0 53h7M13 53h9M27 53h21M54 53h19M81 53h19M108 53h22M0 54h7M14 54h8M27 54h21M54 54h19M81 54h19M108 54h7M116 54h14M0 55h7M15 55h7M27 55h20M54 55h19M81 55h19M108 55h7M116 55h14M0 56h7M15 56h7M27 56h21M54 56h7M81 56h7M108 56h7M117 56h13M0 57h7M15 57h7M27 57h22M54 57h7M81 57h7M108 57h7M118 57h12M0 58h7M15 58h7M27 58h22M54 58h7M81 58h7M108 58h7M118 58h12M0 59h8M14 59h8M27 59h8M39 59h10M54 59h7M81 59h7M108 59h7M119 59h11M0 60h9M13 60h9M27 60h7M40 60h9M54 60h7M81 60h7M108 60h7M120 60h10M0 61h22M27 61h7M41 61h8M54 61h22M81 61h22M108 61h7M120 61h10M1 62h20M27 62h7M42 62h7M54 62h22M81 62h22M108 62h7M121 62h9M1 63h20M27 63h7M42 63h7M54 63h22M81 63h22M108 63h7M121 63h9M2 64h18M27 64h7M42 64h7M54 64h22M81 64h22M108 64h7M122 64h8M3 65h16M27 65h7M42 65h7M54 65h22M81 65h22M108 65h7M122 65h8M4 66h14M27 66h7M42 66h7M54 66h22M81 66h22M108 66h7M123 66h7M6 67h10M27 67h7M42 67h7M54 67h22M81 67h22M108 67h7M123 67h7" />
<path stroke="#7bc043" d="M22 1h1M22 2h2M22 3h3M129 3h1M22 4h3M130 4h1M22 5h3M48 5h1M75 5h1M102 5h1M130 5h2M22 6h3M49 6h1M76 6h1M103 6h1M130 6h2M22 7h3M36 7h4M49 7h2M63 7h4M76 7h2M90 7h4M103 7h2M115 7h7M130 7h3M22 8h3M35 8h6M49 8h2M62 8h6M76 8h2M89 8h6M103 8h2M115 8h8M130 8h3M22 9h3M34 9h8M49 9h3M61 9h8M76 9h3M88 9h8M103 9h3M115 9h8M130 9h3M22 10h3M34 10h5M49 10h3M61 10h5M76 10h3M88 10h5M103 10h3M115 10h3M130 10h3M22 11h3M34 11h4M49 11h3M61 11h4M76 11h3M88 11h4M103 11h3M115 11h3M130 11h3M22 12h3M34 12h3M49 12h3M61 12h3M76 12h3M88 12h3M103 12h3M130 12h3M22 13h3M34 13h3M49 13h3M61 13h3M70 13h9M88 13h3M103 13h3M130 13h3M22 14h3M34 14h3M49 14h3M61 14h3M71 14h8M88 14h3M103 14h3M129 14h4M22 15h3M49 15h3M61 15h3M72 15h7M88 15h3M103 15h3M129 15h4M22 16h3M49 16h3M61 16h3M88 16h3M103 16h3M129 16h4M22 17h3M49 17h3M61 17h3M88 17h3M103 17h3M130 17h2M22 18h3M49 18h3M61 18h3M88 18h3M103 18h3M130 18h2M22 19h3M49 19h3M61 19h3M76 19h1M88 19h3M103 19h3M115 19h6M130 19h2M7 20h1M22 20h3M49 20h3M61 20h3M76 20h2M88 20h3M103 20h3M115 20h8M130 20h3M7 21h2M22 21h3M34 21h8M49 21h3M61 21h3M76 21h3M88 21h3M103 21h3M115 21h8M130 21h3M8 22h2M22 22h3M34 22h8M49 22h3M62 22h2M76 22h3M89 22h2M103 22h3M115 22h3M130 22h3M9 23h1M22 23h3M34 23h8M49 23h3M63 23h1M76 23h3M90 23h1M103 23h3M115 23h3M130 23h3M22 24h3M34 24h3M49 24h3M76 24h3M103 24h3M130 24h3M21 25h4M34 25h3M49 25h3M75 25h4M102 25h4M130 25h3M21 26h4M34 26h3M49 26h3M75 26h4M102 26h4M130 26h3M20 27h5M34 27h3M49 27h3M74 27h5M101 27h5M129 27h4M19 28h5M34 28h3M49 28h3M73 28h5M100 28h5M129 28h4M18 29h6M34 29h3M49 29h3M72 29h6M99 29h6M128 29h5M5 30h1M16 30h7M34 30h3M49 30h3M59 30h1M70 30h7M86 30h1M97 30h7M126 30h6M6 31h16M28 31h9M43 31h9M60 31h16M87 31h16M109 31h23M7 32h14M29 32h8M44 32h8M61 32h14M88 32h14M110 32h21M9 33h10M30 33h7M45 33h7M63 33h10M90 33h10M111 33h18M76 38h1M103 38h1M115 38h1M130 38h1M76 39h2M103 39h2M116 39h1M130 39h2M76 40h3M103 40h3M116 40h2M130 40h3M48 41h1M76 41h3M103 41h3M117 41h1M130 41h3M21 42h1M49 42h1M76 42h3M103 42h3M117 42h2M130 42h3M22 43h1M49 43h2M76 43h3M103 43h3M118 43h1M130 43h3M9 44h4M22 44h2M34 44h7M49 44h2M61 44h18M88 44h18M118 44h2M130 44h3M8 45h6M22 45h2M34 45h7M49 45h3M61 45h18M88 45h18M119 45h1M130 45h3M7 46h8M22 46h3M34 46h8M49 46h3M61 46h18M88 46h18M120 46h1M130 46h3M7 47h5M22 47h3M34 47h3M49 47h3M61 47h3M88 47h3M120 47h1M130 47h3M7 48h4M16 48h9M34 48h3M49 48h3M61 48h3M88 48h3M121 48h1M130 48h3M7 49h3M17 49h8M34 49h3M49 49h3M122 49h1M130 49h3M7 50h3M18 50h7M34 50h3M49 50h3M73 50h1M100 50h1M122 50h1M130 50h3M7 51h3M49 51h3M73 51h2M100 51h2M130 51h3M7 52h3M48 52h4M73 52h3M100 52h3M130 52h3M7 53h3M48 53h4M73 53h3M100 53h3M130 53h3M7 54h3M22 54h1M48 54h4M73 54h3M100 54h3M115 54h1M130 54h3M7 55h3M22 55h2M47 55h4M73 55h3M100 55h3M115 55h1M130 55h3M7 56h3M22 56h3M48 56h3M61 56h15M88 56h15M115 56h2M130 56h3M7 57h3M22 57h3M49 57h2M61 57h15M88 57h15M115 57h3M130 57h3M7 58h3M22 58h3M49 58h1M61 58h15M88 58h15M115 58h3M130 58h3M8 59h2M22 59h3M35 59h4M49 59h2M61 59h3M88 59h3M115 59h3M130 59h3M9 60h1M22 60h3M34 60h6M49 60h3M61 60h3M88 60h3M115 60h3M130 60h3M22 61h3M34 61h7M49 61h3M115 61h3M130 61h3M21 62h4M34 62h4M49 62h3M76 62h1M103 62h1M115 62h3M130 62h3M21 63h4M34 63h3M49 63h3M76 63h2M103 63h2M115 63h3M130 63h3M20 64h5M34 64h3M49 64h3M76 64h3M103 64h3M115 64h3M130 64h3M19 65h5M34 65h3M49 65h3M76 65h3M103 65h3M115 65h3M130 65h3M18 66h6M34 66h3M49 66h3M76 66h3M103 66h3M115 66h3M130 66h3M5 67h1M16 67h7M34 67h3M49 67h3M76 67h3M103 67h3M115 67h3M130 67h3M6 68h16M28 68h9M43 68h9M55 68h24M82 68h24M109 68h9M124 68h9M7 69h14M29 69h8M44 69h8M56 69h23M83 69h23M110 69h8M125 69h8M9 70h10M30 70h7M45 70h7M57 70h22M84 70h22M111 70h7M126 70h7" />
</svg>