<svg xmlns="http://www.w3.org/2000/svg" viewBox="0 -0.5 66 26" shape-rendering="crispEdges">
<metadata>Made with Pixels to Svg https://codepen.io/shshaw/pen/XbxvNj</metadata>
<path stroke="#000000" d="M43 0h6M41 1h2M49 1h4M40 2h1M53 2h3M17 3h6M39 3h1M56 3h3M13 4h4M23 4h2M38 4h1M59 4h1M10 5h3M25 5h1M37 5h1M60 5h2M7 6h3M26 6h1M36 6h1M62 6h1M6 7h1M27 7h1M35 7h1M38 7h3M63 7h1M4 8h2M28 8h1M35 8h1M37 8h1M41 8h1M64 8h1M3 9h1M29 9h1M36 9h1M42 9h1M64 9h1M2 10h1M25 10h3M30 10h1M43 10h1M65 10h1M1 11h1M24 11h1M28 11h1M30 11h1M44 11h1M65 11h1M1 12h1M23 12h1M29 12h1M45 12h1M65 12h1M0 13h1M22 13h1M45 13h1M65 13h1M0 14h1M21 14h1M46 14h1M65 14h1M0 15h1M20 15h1M46 15h1M65 15h1M0 16h1M20 16h1M47 16h1M65 16h1M0 17h1M19 17h1M47 17h1M64 17h1M0 18h1M19 18h1M48 18h1M64 18h1M0 19h1M18 19h1M49 19h1M63 19h1M1 20h1M18 20h1M50 20h1M62 20h1M1 21h1M17 21h1M51 21h2M60 21h2M2 22h1M16 22h1M53 22h7M3 23h1M15 23h1M4 24h2M13 24h2M6 25h7" />
<path stroke="#1e88e5" d="M43 1h6M41 2h2M49 2h4M40 3h1M53 3h3M17 4h6M39 4h1M56 4h3M13 5h4M23 5h2M38 5h1M59 5h1M10 6h3M25 6h1M37 6h4M60 6h2M7 7h3M26 7h1M36 7h2M41 7h1M62 7h1M6 8h1M27 8h1M36 8h1M42 8h1M63 8h1M4 9h2M25 9h4M43 9h1M63 9h1M3 10h1M24 10h1M28 10h2M44 10h1M64 10h1M2 11h1M23 11h1M29 11h1M45 11h1M64 11h1M2 12h1M22 12h1M46 12h1M64 12h1M1 13h1M21 13h1M46 13h1M64 13h1M1 14h1M20 14h1M47 14h1M64 14h1M1 15h1M19 15h1M47 15h1M64 15h1M1 16h1M19 16h1M48 16h1M64 16h1M1 17h1M18 17h1M48 17h1M63 17h1M1 18h1M18 18h1M49 18h1M63 18h1M1 19h1M17 19h1M50 19h1M62 19h1M2 20h1M17 20h1M51 20h2M60 20h2M2 21h1M16 21h1M53 21h7M3 22h1M15 22h1M4 23h2M13 23h2M6 24h7" />
<path stroke="#2196f3" d="M43 2h6M41 3h2M49 3h4M40 4h1M53 4h3M17 5h6M39 5h2M56 5h3M13 6h4M23 6h2M41 6h1M59 6h1M10 7h3M25 7h1M42 7h1M60 7h2M7 8h3M25 8h2M43 8h1M62 8h1M6 9h1M24 9h1M44 9h1M62 9h1M4 10h2M23 10h1M45 10h1M63 10h1M3 11h1M22 11h1M46 11h1M63 11h1M3 12h1M21 12h1M47 12h1M63 12h1M2 13h1M20 13h1M47 13h1M63 13h1M2 14h1M19 14h1M48 14h1M63 14h1M2 15h1M18 15h1M48 15h1M63 15h1M2 16h1M18 16h1M49 16h1M63 16h1M2 17h1M17 17h1M49 17h1M62 17h1M2 18h1M17 18h1M50 18h1M62 18h1M2 19h1M16 19h1M51 19h2M60 19h2M3 20h1M16 20h1M53 20h7M3 21h1M15 21h1M4 22h2M13 22h2M6 23h7" />
<path stroke="#42a5f5" d="M43 3h6M41 4h2M49 4h4M41 5h1M53 5h3M17 6h6M42 6h1M56 6h3M13 7h4M23 7h2M43 7h1M59 7h1M10 8h3M24 8h1M44 8h1M60 8h2M7 9h3M23 9h1M45 9h1M61 9h1M6 10h1M22 10h1M46 10h1M62 10h1M4 11h2M21 11h1M47 11h1M62 11h1M4 12h1M20 12h1M48 12h1M62 12h1M3 13h1M19 13h1M48 13h1M62 13h1M3 14h1M18 14h1M49 14h1M62 14h1M3 15h1M17 15h1M49 15h1M62 15h1M3 16h1M17 16h1M50 16h1M62 16h1M3 17h1M16 17h1M50 17h1M61 17h1M3 18h1M16 18h1M51 18h2M60 18h2M3 19h1M15 19h1M53 19h7M4 20h1M15 20h1M4 21h2M13 21h2M6 22h7" />
<path stroke="#64b5f6" d="M43 4h6M42 5h5M50 5h3M43 6h3M51 6h5M17 7h6M44 7h3M52 7h7M13 8h3M19 8h5M45 8h5M53 8h7M10 9h5M20 9h3M46 9h5M52 9h9M7 10h7M19 10h3M47 10h15M6 11h7M16 11h5M48 11h11M60 11h2M5 12h9M15 12h5M49 12h9M61 12h1M4 13h15M49 13h9M61 13h1M4 14h2M7 14h11M50 14h4M55 14h3M61 14h1M4 15h1M8 15h9M50 15h3M60 15h2M4 16h1M8 16h9M51 16h3M59 16h3M4 17h1M8 17h3M12 17h4M51 17h4M58 17h3M4 18h2M13 18h3M53 18h7M4 19h3M12 19h3M5 20h3M11 20h4M6 21h7" />
<path stroke="#e3f2fd" d="M47 5h3M46 6h1M50 6h1M47 7h3M51 7h1M16 8h3M50 8h1M52 8h1M15 9h1M19 9h1M51 9h1M14 10h1M16 10h3M13 11h1M15 11h1M59 11h1M14 12h1M58 12h1M60 12h1M58 13h1M60 13h1M6 14h1M54 14h1M58 14h1M60 14h1M5 15h1M7 15h1M53 15h1M55 15h3M59 15h1M5 16h1M7 16h1M54 16h1M58 16h1M5 17h1M7 17h1M11 17h1M55 17h3M6 18h1M8 18h3M12 18h1M7 19h1M11 19h1M8 20h3" />
<path stroke="#ffffff" d="M47 6h3M50 7h1M51 8h1M16 9h3M15 10h1M14 11h1M59 12h1M59 13h1M59 14h1M6 15h1M54 15h1M58 15h1M6 16h1M55 16h3M6 17h1M7 18h1M11 18h1M8 19h3" />
</svg>