<?xml version="1.0" standalone="no"?>
<!DOCTYPE svg PUBLIC "-//W3C//DTD SVG 20010904//EN"
 "http://www.w3.org/TR/2001/REC-SVG-20010904/DTD/svg10.dtd">
<svg version="1.0" xmlns="http://www.w3.org/2000/svg"
 width="832.000000pt" height="832.000000pt" viewBox="0 0 832.000000 832.000000"
 preserveAspectRatio="xMidYMid meet">
<metadata>
Created by potrace 1.11, written by Peter Selinger 2001-2013
</metadata>
<g transform="translate(0.000000,832.000000) scale(0.100000,-0.100000)"
fill="#000000" stroke="none">
<path d="M2398 6874 c-3 -3 -2 -21 2 -40 4 -19 4 -36 0 -39 -4 -3 -4 -21 0
-40 4 -19 4 -37 0 -40 -5 -3 -5 -19 0 -35 5 -16 5 -32 0 -35 -4 -3 -5 -20 -1
-37 4 -18 6 -42 5 -53 -1 -11 -3 -32 -3 -47 -1 -16 -1 -40 -2 -55 0 -16 -2
-37 -3 -48 -1 -11 1 -34 5 -51 3 -18 3 -38 -1 -45 -5 -7 -5 -22 0 -34 5 -12 5
-28 0 -35 -4 -7 -4 -26 0 -41 5 -16 5 -31 0 -34 -4 -3 -5 -20 -1 -37 4 -18 6
-42 5 -53 -1 -11 -3 -32 -3 -47 -1 -16 -1 -40 -2 -55 0 -16 -2 -37 -3 -48 -1
-11 1 -35 5 -53 4 -17 3 -34 -1 -37 -4 -3 -4 -21 0 -40 4 -19 4 -37 0 -40 -5
-3 -5 -19 0 -35 5 -16 5 -32 0 -35 -4 -3 -5 -20 -1 -37 4 -18 6 -42 5 -53 -1
-11 -3 -32 -3 -47 -1 -16 -1 -40 -2 -55 0 -16 -2 -37 -3 -48 -1 -11 1 -34 5
-51 3 -18 3 -38 -1 -45 -5 -7 -5 -22 0 -34 5 -12 5 -28 0 -35 -4 -7 -4 -26 0
-41 5 -16 5 -31 0 -34 -4 -3 -5 -20 -1 -37 4 -18 6 -42 5 -53 -1 -11 -3 -32
-3 -47 -1 -16 -1 -40 -2 -55 0 -16 -2 -37 -3 -48 -1 -11 1 -35 5 -53 4 -17 3
-34 -1 -37 -4 -3 -4 -21 0 -40 4 -19 4 -37 0 -40 -5 -3 -5 -19 0 -35 5 -16 5
-32 0 -35 -4 -3 -5 -20 -1 -37 4 -18 6 -42 5 -53 -1 -11 -3 -32 -3 -47 -1 -16
-1 -40 -2 -55 0 -16 -2 -37 -3 -48 -1 -11 1 -34 5 -51 3 -18 3 -38 -1 -45 -5
-7 -5 -22 0 -34 5 -12 5 -28 0 -35 -4 -7 -4 -26 0 -41 5 -16 5 -31 0 -34 -4
-3 -5 -20 -1 -37 4 -18 6 -42 5 -53 -1 -11 -3 -32 -3 -47 -1 -16 -1 -40 -2
-55 0 -16 -2 -37 -3 -48 -1 -11 1 -35 5 -53 4 -17 3 -34 -1 -37 -4 -3 -4 -21
0 -40 4 -19 4 -37 0 -40 -5 -3 -5 -19 0 -35 5 -16 5 -32 0 -35 -4 -3 -5 -20
-1 -37 3 -18 5 -46 4 -63 -3 -27 -3 -49 -2 -87 0 -7 -1 -38 -2 -69 -1 -31 1
-61 5 -67 3 -6 3 -13 -2 -16 -5 -3 -7 -18 -4 -34 3 -25 0 -30 -20 -34 -14 -3
-34 -1 -46 3 -12 5 -24 5 -26 0 -3 -4 -18 -6 -33 -4 -25 4 -29 1 -32 -24 -1
-15 -2 -34 -2 -40 4 -59 -1 -92 -15 -97 -7 -3 -16 -1 -19 3 -3 5 -21 5 -40 1
-19 -4 -35 -4 -35 0 0 4 -10 5 -23 3 -24 -5 -27 -11 -27 -58 0 -14 0 -33 0
-42 0 -10 0 -28 0 -40 0 -21 -15 -29 -44 -24 -5 1 -43 2 -85 1 -42 0 -85 0
-96 0 -11 0 -31 0 -45 -1 -32 -1 -58 -2 -95 0 -16 0 -41 1 -55 1 -50 2 -55 3
-62 13 -3 6 -3 20 2 31 4 12 4 30 0 41 -4 11 -4 29 0 40 6 20 4 79 -5 102 -2
7 0 15 4 17 10 6 2 56 -11 73 -6 7 -19 9 -39 3 -16 -5 -29 -5 -29 0 0 4 -16 4
-35 0 -31 -7 -36 -5 -41 15 -3 12 -5 29 -4 36 2 8 2 35 1 61 -1 43 -3 48 -23
47 -13 0 -42 1 -66 3 -23 2 -42 0 -42 -4 0 -4 -6 -5 -14 -2 -8 3 -15 21 -15
40 -1 19 -2 40 -3 47 0 6 1 17 2 22 10 42 -7 58 -57 56 -7 -1 -21 -1 -30 -1
-10 1 -30 1 -44 1 -24 0 -27 4 -31 40 -2 22 -1 45 3 51 12 19 -6 63 -27 63
-10 1 -24 4 -31 8 -6 4 -14 3 -17 -2 -3 -5 -21 -5 -41 -1 -19 4 -37 4 -40 0
-3 -4 -20 -4 -39 0 -19 4 -40 4 -47 0 -7 -5 -18 -6 -25 -3 -20 7 -124 9 -124
2 0 -4 -17 -3 -38 0 -20 4 -46 6 -57 5 -11 -2 -32 -3 -47 -3 -16 -1 -40 -1
-55 -2 -16 0 -35 0 -43 0 -8 1 -26 1 -40 0 -14 0 -32 0 -40 0 -8 1 -26 1 -40
0 -14 0 -32 0 -40 0 -8 1 -26 1 -40 0 -14 0 -32 0 -40 0 -8 1 -26 1 -40 0 -14
0 -32 0 -40 0 -8 1 -26 1 -40 0 -14 0 -32 0 -40 0 -14 1 -45 0 -77 -2 -10 0
-13 -103 -13 -478 l0 -477 35 -4 c19 -2 40 -1 46 3 6 3 25 3 42 0 l32 -7 2
-103 c0 -56 3 -105 6 -107 3 -3 2 -18 -3 -32 -11 -41 4 -69 40 -74 17 -3 33
-1 36 3 2 4 17 4 33 -1 16 -4 32 -6 35 -3 12 13 25 -9 16 -31 -4 -12 -5 -29 0
-36 5 -7 4 -23 0 -36 -11 -28 6 -50 42 -56 16 -3 28 -2 28 1 0 3 21 5 46 3 25
-2 43 -6 41 -9 -3 -2 -1 -18 3 -34 5 -16 5 -31 1 -33 -11 -7 0 -83 12 -84 64
-6 104 -6 101 0 -3 4 5 4 17 0 12 -5 24 -17 26 -28 3 -17 4 -28 2 -76 -1 -51
24 -70 77 -58 18 4 38 4 45 -1 7 -4 16 -6 21 -3 4 2 12 -5 18 -16 8 -14 8 -20
0 -20 -7 0 -8 -6 -1 -17 5 -9 5 -26 1 -38 -5 -12 -4 -28 0 -35 5 -8 7 -17 4
-21 -2 -4 8 -9 21 -12 14 -2 28 -1 30 4 3 4 18 4 33 -1 16 -4 36 -4 44 1 11 6
20 4 28 -6 7 -9 8 -15 2 -15 -6 0 -7 -13 -2 -35 4 -19 4 -35 0 -35 -4 0 -4
-15 -1 -33 4 -20 13 -32 23 -32 9 0 20 -3 23 -7 4 -4 17 -3 29 1 11 5 30 5 41
1 11 -4 26 -5 34 -2 10 4 13 -1 9 -22 -3 -14 -2 -29 2 -31 4 -3 4 -23 0 -45
-5 -26 -3 -43 4 -49 15 -11 66 -20 66 -11 0 4 18 4 40 0 22 -4 43 -4 45 0 3 4
21 4 40 0 19 -4 37 -4 40 0 3 4 20 4 39 0 19 -4 37 -6 39 -3 3 2 7 -12 9 -31
2 -20 2 -36 -2 -36 -3 0 -5 -20 -5 -45 l0 -45 806 0 807 0 -8 35 c-4 19 -4 37
0 40 5 3 5 18 0 34 -4 15 -4 35 1 42 5 8 9 11 9 8 0 -4 16 -3 35 1 19 4 37 4
40 0 3 -4 21 -4 40 0 19 4 50 5 68 1 17 -4 43 -4 57 -1 14 4 33 3 42 -2 23
-11 37 16 28 56 -4 17 -4 40 0 51 4 11 4 27 -1 36 -10 20 15 30 46 19 11 -4
29 -4 41 0 11 5 27 5 34 0 28 -17 40 -2 40 55 0 14 0 33 0 43 0 9 0 27 0 39 0
25 20 31 73 22 20 -3 37 -3 37 2 0 5 12 6 28 3 26 -5 27 -4 26 38 -1 24 -4 59
-5 78 -4 32 -2 35 23 35 15 1 30 4 33 7 4 3 19 3 34 -2 16 -4 34 -4 42 0 7 5
16 7 20 4 11 -6 18 21 9 35 -4 7 -4 28 0 47 4 19 4 36 0 39 -4 3 -4 21 0 40 4
19 4 37 0 40 -5 3 -5 18 -1 33 5 15 4 37 0 50 -5 12 -7 22 -6 23 1 0 11 2 22
5 19 4 32 4 90 4 13 0 30 1 37 2 14 3 28 38 20 52 -3 5 -4 43 -3 85 1 42 2 82
2 89 0 6 -1 22 -1 35 0 12 1 31 3 41 2 11 1 37 -3 57 -4 21 -5 41 -2 43 2 3 4
56 2 118 -1 62 -1 120 -1 128 1 8 1 26 0 40 0 14 0 32 0 40 1 8 1 47 0 85 0
39 0 76 0 83 0 6 1 37 1 67 0 30 0 85 0 123 1 37 0 81 -1 97 -1 33 -1 38 4 75
1 14 0 42 -4 62 -3 21 -4 40 -1 42 2 3 4 56 2 118 -1 62 -1 120 -1 128 1 8 1
26 0 40 0 14 0 32 0 40 1 8 1 47 0 85 0 39 0 76 0 83 1 17 1 119 0 135 0 10 0
116 0 180 1 9 1 42 1 72 0 30 0 85 0 123 1 37 0 81 -1 97 -1 33 -1 38 4 75 1
14 0 42 -4 62 -3 21 -4 40 -1 42 2 3 4 56 2 118 -1 62 -1 120 -1 128 1 8 1 26
0 40 0 14 0 32 0 40 1 8 1 47 0 85 0 39 0 76 0 83 1 17 1 119 0 135 0 10 0
116 0 180 1 43 1 138 0 205 0 39 2 76 6 81 3 5 1 12 -4 15 -5 3 -6 21 -2 38 4
18 8 35 8 38 1 3 -2 24 -7 48 -4 23 -4 42 0 42 12 0 -2 65 -17 77 -9 7 -23 9
-37 4 -11 -5 -30 -5 -41 -1 -11 4 -28 4 -37 -1 -16 -9 -37 6 -25 17 3 3 1 19
-3 35 -5 16 -5 31 0 34 5 3 7 11 5 18 -2 7 -6 24 -9 38 -5 25 -8 26 -41 19
-19 -4 -37 -4 -40 0 -3 5 -18 5 -34 0 -38 -11 -50 2 -42 48 3 20 5 54 3 75 -3
36 -5 38 -33 33 -16 -2 -31 -1 -34 4 -3 4 -20 4 -39 0 -43 -9 -53 -2 -52 33 1
16 -2 31 -6 33 -5 3 -4 13 1 23 5 9 6 23 1 31 -4 7 -6 19 -3 27 4 11 -91 13
-554 13 -308 0 -562 -2 -565 -6z"/>
<path d="M5278 6874 c-3 -3 -3 -17 1 -32 4 -15 4 -44 1 -64 -4 -22 -3 -41 4
-48 8 -9 0 -11 -31 -9 -23 2 -45 1 -48 -3 -3 -3 -20 -3 -38 1 -18 4 -46 4 -64
0 -18 -3 -35 -4 -37 -1 -3 2 -27 5 -55 6 -47 1 -50 -1 -54 -26 -2 -16 0 -28 4
-28 4 0 4 -13 -1 -29 -4 -15 -4 -34 0 -41 17 -28 -12 -45 -70 -41 -14 1 -47 0
-77 -2 -16 -1 -23 -21 -13 -37 4 -7 4 -26 0 -41 -5 -16 -5 -29 0 -29 10 0 0
-43 -13 -51 -5 -4 -24 -3 -43 1 -19 4 -36 4 -39 0 -3 -5 -18 -5 -34 0 -26 7
-29 6 -30 -19 -1 -14 -1 -35 -1 -46 1 -11 1 -27 0 -35 0 -8 0 -26 0 -39 0 -18
-4 -22 -20 -18 -11 3 -20 1 -20 -5 0 -5 -5 -6 -10 -3 -18 11 -102 7 -110 -5
-4 -6 -4 -29 0 -50 4 -22 5 -42 2 -45 -6 -6 -6 -100 1 -112 2 -4 1 -17 -3 -28
-4 -11 -4 -32 0 -46 7 -24 5 -26 -24 -28 -17 -1 -38 -2 -46 -1 -14 0 -50 -1
-77 -3 -14 -1 -24 -45 -11 -53 4 -3 6 -9 3 -14 -3 -5 -5 -44 -5 -87 1 -43 1
-86 1 -95 -1 -10 -1 -43 -1 -73 0 -30 0 -85 0 -122 -1 -38 0 -81 1 -98 1 -33
1 -38 -4 -75 -1 -14 0 -42 4 -62 3 -21 4 -40 1 -42 -2 -3 -4 -56 -2 -118 1
-62 1 -120 1 -128 -1 -8 -1 -26 0 -40 0 -14 0 -32 0 -40 -1 -8 -1 -46 0 -85 0
-38 0 -76 0 -82 -1 -18 -1 -120 0 -135 0 -11 0 -117 0 -180 -1 -10 -1 -43 -1
-73 0 -30 0 -85 0 -122 -1 -38 0 -81 1 -98 1 -33 1 -38 -4 -75 -1 -14 0 -42 4
-62 3 -21 4 -40 1 -42 -2 -3 -4 -56 -2 -118 1 -62 1 -120 1 -128 -1 -8 -1 -26
0 -40 0 -14 0 -32 0 -40 -1 -8 -1 -46 0 -85 0 -38 0 -76 0 -82 -1 -19 -1 -121
0 -135 0 -7 0 -56 0 -108 -1 -52 -1 -117 0 -145 0 -27 0 -54 -1 -60 -1 -5 -2
-14 -1 -19 1 -4 2 -23 3 -41 1 -30 5 -34 35 -37 18 -2 33 -1 33 3 0 5 42 1 83
-9 4 -1 9 -2 11 -2 3 0 1 -13 -4 -29 -4 -15 -4 -34 0 -41 4 -7 4 -25 0 -40 -4
-15 -4 -33 0 -40 4 -7 4 -26 0 -41 -5 -16 -5 -31 0 -34 4 -3 4 -21 0 -40 -7
-33 -6 -36 19 -41 14 -3 31 -7 38 -9 7 -2 14 -1 17 3 2 4 22 6 44 4 l39 -4 1
-56 c1 -82 6 -95 35 -103 15 -4 27 -4 27 1 0 4 16 4 35 0 19 -4 35 -4 35 1 0
15 29 -2 32 -19 2 -10 1 -32 -3 -50 -4 -17 -3 -34 1 -37 4 -2 5 -15 3 -29 -5
-24 3 -27 62 -26 8 0 23 0 33 0 9 0 28 0 41 0 18 0 22 -4 18 -20 -3 -11 -1
-22 3 -25 5 -3 5 -19 0 -35 -5 -16 -5 -32 0 -35 4 -3 6 -15 2 -27 -4 -18 -2
-20 16 -16 12 4 22 3 22 -2 0 -4 16 -4 34 0 19 4 37 6 40 3 2 -2 12 -6 23 -7
13 -2 18 -12 20 -35 1 -18 4 -39 7 -46 3 -8 1 -17 -4 -20 -5 -3 -6 -13 -3 -23
12 -34 23 -41 54 -32 16 5 29 5 29 0 0 -4 15 -4 34 0 29 6 35 4 44 -14 5 -11
6 -30 2 -41 -4 -11 -4 -30 1 -41 4 -12 5 -31 2 -43 -6 -23 -9 -23 90 -23 l67
0 1 -37 c1 -20 1 -55 1 -77 -1 -42 -1 -42 39 -46 21 -2 39 -1 39 3 0 3 17 3
38 -1 20 -3 54 -3 75 1 20 3 37 3 37 0 0 -4 19 -7 42 -6 l43 0 6 -43 c3 -23 3
-42 -1 -42 -3 0 -4 -16 -2 -35 l4 -35 797 0 c439 0 800 3 803 6 4 3 2 19 -2
35 -5 16 -5 31 0 34 5 3 5 19 0 35 -9 32 11 67 32 54 13 -8 118 -11 118 -3 0
3 20 3 45 -1 25 -4 47 -4 50 -1 4 3 21 4 39 3 34 -3 36 -1 36 53 0 14 0 33 0
43 0 9 0 28 0 41 0 18 4 22 20 18 11 -3 23 -1 26 4 3 5 10 7 15 4 13 -8 85 -9
98 -1 6 4 7 15 1 30 -4 12 -5 29 0 36 5 7 5 23 0 34 -9 26 6 70 21 60 14 -8
124 -8 137 0 6 3 7 20 3 39 -5 18 -5 41 -1 52 4 11 4 30 -1 42 -9 26 10 34 54
22 15 -4 27 -4 27 1 0 4 15 4 34 0 39 -9 59 -1 47 19 -5 7 -5 28 -1 47 4 19 5
36 1 38 -4 3 -4 30 -1 61 3 31 4 58 1 60 -3 2 -4 25 -3 53 l4 49 34 -7 c19 -4
34 -4 34 1 0 4 10 5 22 0 11 -4 32 -6 45 -3 l23 4 0 720 0 720 -35 -4 c-19 -2
-35 -1 -35 3 0 3 -18 3 -40 -1 -47 -9 -49 -5 -49 89 -1 62 -12 94 -25 73 -3
-6 -20 -7 -41 -2 -19 4 -35 4 -35 0 0 -5 -12 -5 -27 -1 -30 8 -34 22 -33 104
1 55 0 57 -22 54 -13 -3 -32 -1 -43 3 -11 4 -32 4 -47 -1 -28 -8 -56 11 -44
30 4 5 2 12 -3 15 -6 4 -6 18 -1 36 5 16 5 32 1 35 -5 2 -6 16 -3 30 4 23 2
25 -19 17 -13 -5 -33 -6 -44 -2 -11 4 -23 5 -28 3 -4 -2 -44 -4 -90 -4 -45 1
-109 1 -142 1 -33 -1 -67 -1 -75 -1 -8 0 -46 0 -85 0 -38 0 -77 0 -85 0 -8 0
-42 1 -75 0 -33 0 -67 0 -75 0 -8 0 -46 0 -85 0 -38 0 -77 0 -85 0 -8 0 -42 1
-75 0 -33 0 -67 0 -75 0 -8 0 -46 1 -83 1 -37 0 -71 -2 -76 -4 -4 -3 -13 -1
-20 3 -7 5 -28 5 -47 1 -19 -4 -36 -4 -39 0 -3 4 -20 5 -37 1 -18 -4 -45 -4
-60 0 -35 9 -41 0 -39 -65 1 -28 2 -61 1 -74 0 -21 4 -23 38 -22 20 1 56 2 78
1 l41 -1 1 -62 c1 -104 0 -101 22 -95 12 3 34 2 49 -3 16 -4 34 -4 41 0 15 10
62 -9 54 -21 -8 -13 -7 -196 1 -208 3 -6 2 -11 -3 -11 -5 0 -6 -17 -2 -40 4
-22 4 -40 0 -40 -4 0 -4 -15 0 -34 4 -19 4 -39 0 -46 -4 -6 -4 -26 -1 -43 4
-18 4 -49 0 -70 -3 -20 -3 -39 0 -41 4 -3 5 -22 3 -44 -3 -33 -8 -41 -28 -45
-13 -2 -24 -1 -24 2 0 3 -11 6 -25 6 -14 0 -25 -3 -25 -6 0 -3 -13 -4 -28 -1
-30 4 -34 -2 -31 -58 0 -14 0 -31 0 -37 -1 -7 -1 -21 -2 -30 -1 -32 -9 -44
-21 -37 -19 12 -130 6 -138 -7 -4 -6 -4 -23 -1 -38 4 -14 4 -41 0 -58 -4 -21
-3 -33 3 -33 6 0 6 -6 -1 -14 -9 -10 -20 -12 -40 -6 -16 4 -34 4 -41 0 -7 -5
-23 -5 -34 0 -12 4 -30 4 -41 0 -11 -4 -32 -4 -46 0 -15 4 -32 4 -39 0 -6 -4
-28 -4 -49 1 -43 10 -34 10 -71 -1 -16 -5 -32 -5 -35 0 -3 4 -20 4 -39 0 -29
-6 -35 -4 -43 14 -6 11 -7 33 -3 47 4 15 4 32 0 39 -4 7 -4 26 -1 44 4 17 4
45 1 63 -4 17 -4 37 1 44 4 7 4 22 -1 34 -5 12 -5 28 0 35 4 7 4 26 0 41 -5
16 -5 31 0 34 4 3 5 20 1 37 -4 18 -6 42 -5 53 1 11 3 32 3 48 1 15 1 39 2 55
0 15 2 36 3 47 1 11 -1 35 -5 53 -4 17 -3 34 1 37 4 3 4 21 0 40 -4 19 -4 37
0 40 5 3 5 19 0 35 -5 16 -5 32 0 35 4 3 5 20 1 37 -4 18 -6 42 -5 53 1 11 3
32 3 48 1 15 1 39 2 55 0 15 2 36 3 47 1 11 -1 34 -5 51 -3 18 -3 38 1 45 5 7
5 22 0 34 -5 12 -5 28 0 35 4 7 4 26 0 41 -5 16 -5 31 0 34 4 3 4 20 0 39 -4
19 -4 39 0 46 4 7 4 27 0 45 -4 18 -4 39 0 46 5 7 5 22 0 34 -5 12 -5 28 0 35
4 7 4 26 0 41 -5 16 -5 31 0 34 4 3 5 20 1 37 -4 18 -5 44 -4 58 2 14 3 35 3
48 0 12 0 30 0 40 0 9 0 28 0 41 0 20 4 23 25 19 14 -3 25 -2 25 1 0 3 14 6
30 6 17 0 30 -3 30 -6 0 -3 11 -4 24 -2 28 6 36 32 25 76 -4 15 -4 27 0 27 4
0 6 12 3 28 -3 24 0 28 25 31 15 1 34 2 41 2 26 -2 38 -2 68 0 30 2 31 4 24
30 -5 16 -5 31 0 34 5 3 6 15 1 26 -4 12 -5 34 -3 49 4 25 7 27 32 20 15 -4
33 -4 40 0 6 4 27 4 45 0 18 -4 38 -4 45 0 7 4 26 4 44 0 17 -4 40 -4 51 0 11
4 23 6 27 4 14 -8 68 -11 68 -4 0 4 15 5 33 1 17 -4 47 -6 65 -4 36 3 35 4 32
-103 -1 -56 -5 -53 78 -54 23 0 47 2 51 5 15 9 30 -20 30 -60 1 -89 3 -104 17
-109 8 -3 14 -1 14 4 0 5 13 5 30 0 16 -5 32 -5 35 0 3 4 17 5 32 1 22 -6 29
-15 34 -44 3 -20 3 -37 -1 -37 -4 0 -4 -17 -1 -37 5 -28 12 -38 24 -37 9 1 17
-2 17 -6 0 -5 13 -5 30 0 16 5 32 5 35 1 2 -5 16 -6 29 -4 22 5 25 2 24 -25
-1 -16 2 -33 5 -39 3 -5 2 -15 -2 -22 -15 -24 3 -64 32 -72 15 -4 29 -4 32 1
3 4 20 5 37 1 18 -4 44 -4 58 -1 14 4 37 3 51 -1 15 -4 32 -3 40 1 7 5 20 5
29 0 9 -5 22 -5 30 0 8 5 21 5 29 1 9 -5 25 -5 36 -1 11 4 31 4 45 0 14 -4 36
-4 50 0 14 3 36 4 50 0 14 -3 40 -3 58 1 17 4 32 3 32 -1 0 -4 16 -4 34 0 19
4 37 5 40 2 3 -3 43 -4 88 -3 46 1 89 2 96 2 6 -1 22 -1 35 -1 12 0 33 1 47 3
14 2 37 0 51 -4 15 -4 32 -3 39 1 7 5 23 5 34 1 47 -18 46 -22 46 399 0 373
-1 399 -17 399 -48 -1 -120 3 -134 7 -13 3 -14 13 -9 49 4 25 4 45 0 45 -3 0
-4 21 0 48 3 26 3 61 0 77 -4 17 -3 37 1 46 5 9 2 24 -6 36 -12 17 -21 19 -55
13 -22 -4 -40 -4 -40 0 0 3 -14 4 -32 2 -26 -4 -30 -2 -25 11 3 9 2 19 -3 22
-5 3 -5 18 -1 33 4 15 4 39 0 55 -4 15 -4 28 -1 28 4 1 -11 5 -33 8 -22 4 -44
5 -49 2 -16 -7 -74 -6 -69 2 2 4 0 7 -6 7 -6 0 -6 11 -1 29 4 15 4 34 0 41 -5
7 -4 23 0 36 15 38 -15 51 -97 42 -18 -3 -33 -1 -33 4 0 4 -6 7 -12 6 -8 -2
-13 7 -12 20 0 12 -3 22 -7 22 -4 0 -4 14 1 30 5 17 5 30 1 30 -4 0 -7 10 -7
21 1 14 -6 23 -17 25 -11 1 -21 5 -24 8 -3 2 -16 1 -29 -4 -13 -5 -26 -5 -29
-1 -3 5 -14 7 -26 4 -28 -8 -37 10 -30 60 12 77 -3 103 -54 98 -11 -1 -27 -2
-35 -1 -8 0 -27 0 -42 0 -28 0 -45 14 -29 24 6 4 6 18 1 36 -5 16 -5 32 0 35
4 3 5 17 1 32 -5 20 -16 29 -39 34 -18 4 -32 4 -32 0 0 -3 -20 -5 -44 -3 -42
4 -44 5 -42 33 1 16 -1 29 -6 29 -4 0 -4 10 1 23 13 37 -1 72 -30 73 -15 1
-31 4 -37 8 -6 3 -13 2 -16 -3 -3 -5 -21 -5 -41 -1 -19 4 -35 4 -35 0 0 -4
-16 -4 -35 0 -19 4 -37 4 -40 0 -3 -4 -20 -4 -39 0 -19 4 -37 6 -39 3 -3 -2
-7 12 -9 31 -2 20 -2 36 2 36 3 0 5 20 5 45 l0 45 -801 0 c-440 0 -803 -3
-806 -6z"/>
</g>
</svg>
